<svg width="120" height="120" viewBox="0 0 24 24" fill="none" xmlns="http://www.w3.org/2000/svg">
  <defs>
    <linearGradient id="logoGradient" x1="0%" y1="0%" x2="100%" y2="100%">
      <stop offset="0%" style="stop-color:#10b981;stop-opacity:1" />
      <stop offset="100%" style="stop-color:#059669;stop-opacity:1" />
    </linearGradient>
  </defs>
  
  <!-- Main medical cross/building shape -->
  <path d="M3 9l9-7 9 7v11a2 2 0 0 1-2 2H5a2 2 0 0 1-2-2V9z" 
        stroke="url(#logoGradient)" stroke-width="2" stroke-linecap="round" stroke-linejoin="round"/>
  
  <!-- Plus sign for medical care -->
  <polyline points="9 22 9 12" 
            stroke="url(#logoGradient)" stroke-width="2.5" stroke-linecap="round" stroke-linejoin="round"/>
  
  <!-- Heart pulse for healthcare -->
  <path d="M9 12V9a3 3 0 0 1 3-3h3a3 3 0 0 1 3 3v3" 
        stroke="url(#logoGradient)" stroke-width="1.5" stroke-linecap="round" stroke-linejoin="round" opacity="0.8"/>
  
  <!-- Subtle medical symbol -->
  <circle cx="12" cy="8" r="1" fill="url(#logoGradient)" opacity="0.6"/>
  
  <!-- Decorative elements for professional look -->
  <path d="M7 6h10M6 18h12" 
        stroke="url(#logoGradient)" stroke-width="1" stroke-linecap="round" opacity="0.4"/>
</svg>
